HIERARCHY
ROOT Hips
{
	OFFSET -14.64140 90.27770 -84.91600
	CHANNELS 6 Xposition Yposition Zposition Zrotation Xrotation Yrotation
	JOINT Spine
	{
		OFFSET 0.00000 13.20850 -1.60436
		CHANNELS 3 Zrotation Xrotation Yrotation
		JOINT Spine1
		{
			OFFSET 0.00000 8.61716 0.00000
			CHANNELS 3 Zrotation Xrotation Yrotation
			JOINT Spine2
			{
				OFFSET 0.00000 8.61717 0.00000
				CHANNELS 3 Zrotation Xrotation Yrotation
				JOINT Spine3
				{
					OFFSET 0.00000 8.61717 0.00000
					CHANNELS 3 Zrotation Xrotation Yrotation
					JOINT Neck
					{
						OFFSET 0.00000 11.07920 1.10792
						CHANNELS 3 Zrotation Xrotation Yrotation
						JOINT Neck1
						{
							OFFSET 0.00000 7.08032 0.00000
							CHANNELS 3 Zrotation Xrotation Yrotation
							JOINT Head
							{
								OFFSET 0.00000 7.08031 0.00000
								CHANNELS 3 Zrotation Xrotation Yrotation
								End site
								{
									OFFSET 0.00000 0.00000 0.00000
								}
							}
						}
					}
					JOINT RightShoulder
					{
						OFFSET -0.01000 7.91373 5.19711
						CHANNELS 3 Zrotation Xrotation Yrotation
						JOINT RightArm
						{
							OFFSET -18.41580 0.00000 0.00000
							CHANNELS 3 Zrotation Xrotation Yrotation
							JOINT RightForeArm
							{
								OFFSET -29.11090 0.00000 0.00000
								CHANNELS 3 Zrotation Xrotation Yrotation
								JOINT RightHand
								{
									OFFSET -24.65040 0.00000 0.00000
									CHANNELS 3 Zrotation Xrotation Yrotation
									JOINT RightHandThumb1
									{
										OFFSET -5.35114 -0.85590 3.97906
										CHANNELS 3 Zrotation Xrotation Yrotation
										JOINT RightHandThumb2
										{
											OFFSET -4.52789 0.00000 0.00000
											CHANNELS 3 Zrotation Xrotation Yrotation
											JOINT RightHandThumb3
											{
												OFFSET -2.46976 0.00000 0.00000
												CHANNELS 3 Zrotation Xrotation Yrotation
												End site
												{
													OFFSET 0.00000 0.00000 0.00000
												}
											}
										}
									}
									JOINT RightHandIndex1
									{
										OFFSET -14.26970 0.00000 2.88139
										CHANNELS 3 Zrotation Xrotation Yrotation
										JOINT RightHandIndex2
										{
											OFFSET -5.48836 0.00000 0.00000
											CHANNELS 3 Zrotation Xrotation Yrotation
											JOINT RightHandIndex3
											{
												OFFSET -3.01859 0.00000 0.00000
												CHANNELS 3 Zrotation Xrotation Yrotation
												End site
												{
													OFFSET 0.00000 0.00000 0.00000
												}
											}
										}
									}
									JOINT RightHandMiddle1
									{
										OFFSET -14.26970 0.00000 -0.09147
										CHANNELS 3 Zrotation Xrotation Yrotation
										JOINT RightHandMiddle2
										{
											OFFSET -6.17441 0.00000 0.00000
											CHANNELS 3 Zrotation Xrotation Yrotation
											JOINT RightHandMiddle3
											{
												OFFSET -3.56743 0.00000 0.00000
												CHANNELS 3 Zrotation Xrotation Yrotation
												End site
												{
													OFFSET 0.00000 0.00000 0.00000
												}
											}
										}
									}
									JOINT RightHandRing1
									{
										OFFSET -12.69180 0.00000 -3.06433
										CHANNELS 3 Zrotation Xrotation Yrotation
										JOINT RightHandRing2
										{
											OFFSET -5.62556 0.00000 0.00000
											CHANNELS 3 Zrotation Xrotation Yrotation
											JOINT RightHandRing3
											{
												OFFSET -3.56744 0.00000 0.00000
												CHANNELS 3 Zrotation Xrotation Yrotation
												End site
												{
													OFFSET 0.00000 0.00000 0.00000
												}
											}
										}
									}
									JOINT RightHandPinky1
									{
										OFFSET -11.11390 0.00000 -6.03719
										CHANNELS 3 Zrotation Xrotation Yrotation
										JOINT RightHandPinky2
										{
											OFFSET -4.52789 0.00000 0.00000
											CHANNELS 3 Zrotation Xrotation Yrotation
											JOINT RightHandPinky3
											{
												OFFSET -2.46976 0.00000 0.00000
												CHANNELS 3 Zrotation Xrotation Yrotation
												End site
												{
													OFFSET 0.00000 0.00000 0.00000
												}
											}
										}
									}
								}
							}
						}
					}
					JOINT LeftShoulder
					{
						OFFSET 0.01000 7.91373 5.19711
						CHANNELS 3 Zrotation Xrotation Yrotation
						JOINT LeftArm
						{
							OFFSET 18.41580 0.00000 0.00000
							CHANNELS 3 Zrotation Xrotation Yrotation
							JOINT LeftForeArm
							{
								OFFSET 29.11090 0.00000 0.00000
								CHANNELS 3 Zrotation Xrotation Yrotation
								JOINT LeftHand
								{
									OFFSET 24.65040 0.00000 0.00000
									CHANNELS 3 Zrotation Xrotation Yrotation
									JOINT LeftHandThumb1
									{
										OFFSET 5.35114 -0.85590 3.97906
										CHANNELS 3 Zrotation Xrotation Yrotation
										JOINT LeftHandThumb2
										{
											OFFSET 4.52789 0.00000 0.00000
											CHANNELS 3 Zrotation Xrotation Yrotation
											JOINT LeftHandThumb3
											{
												OFFSET 2.46977 0.00000 0.00000
												CHANNELS 3 Zrotation Xrotation Yrotation
												End site
												{
													OFFSET 0.00000 0.00000 0.00000
												}
											}
										}
									}
									JOINT LeftHandIndex1
									{
										OFFSET 14.26970 0.00000 2.88139
										CHANNELS 3 Zrotation Xrotation Yrotation
										JOINT LeftHandIndex2
										{
											OFFSET 5.48836 0.00000 0.00000
											CHANNELS 3 Zrotation Xrotation Yrotation
											JOINT LeftHandIndex3
											{
												OFFSET 3.01859 0.00000 0.00000
												CHANNELS 3 Zrotation Xrotation Yrotation
												End site
												{
													OFFSET 0.00000 0.00000 0.00000
												}
											}
										}
									}
									JOINT LeftHandMiddle1
									{
										OFFSET 14.26970 0.00000 -0.09147
										CHANNELS 3 Zrotation Xrotation Yrotation
										JOINT LeftHandMiddle2
										{
											OFFSET 6.17440 0.00000 0.00000
											CHANNELS 3 Zrotation Xrotation Yrotation
											JOINT LeftHandMiddle3
											{
												OFFSET 3.56744 0.00000 0.00000
												CHANNELS 3 Zrotation Xrotation Yrotation
												End site
												{
													OFFSET 0.00000 0.00000 0.00000
												}
											}
										}
									}
									JOINT LeftHandRing1
									{
										OFFSET 12.69180 0.00000 -3.06433
										CHANNELS 3 Zrotation Xrotation Yrotation
										JOINT LeftHandRing2
										{
											OFFSET 5.62556 0.00000 0.00000
											CHANNELS 3 Zrotation Xrotation Yrotation
											JOINT LeftHandRing3
											{
												OFFSET 3.56744 0.00000 0.00000
												CHANNELS 3 Zrotation Xrotation Yrotation
												End site
												{
													OFFSET 0.00000 0.00000 0.00000
												}
											}
										}
									}
									JOINT LeftHandPinky1
									{
										OFFSET 11.11390 0.00000 -6.03719
										CHANNELS 3 Zrotation Xrotation Yrotation
										JOINT LeftHandPinky2
										{
											OFFSET 4.52789 0.00000 0.00000
											CHANNELS 3 Zrotation Xrotation Yrotation
											JOINT LeftHandPinky3
											{
												OFFSET 2.46976 0.00000 0.00000
												CHANNELS 3 Zrotation Xrotation Yrotation
												End site
												{
													OFFSET 0.00000 0.00000 0.00000
												}
											}
										}
									}
								}
							}
						}
					}
					JOINT pCube4
					{
						OFFSET 0.00000 10.91090 1.10792
						CHANNELS 3 Zrotation Xrotation Yrotation
						End site
						{
							OFFSET 0.00000 0.00000 0.00000
						}
					}
				}
			}
		}
	}
	JOINT RightUpLeg
	{
		OFFSET -9.98441 0.00000 0.00000
		CHANNELS 3 Zrotation Xrotation Yrotation
		JOINT RightLeg
		{
			OFFSET 0.00000 -42.11790 0.00000
			CHANNELS 3 Zrotation Xrotation Yrotation
			JOINT RightFoot
			{
				OFFSET 0.00000 -45.00020 -0.00001
				CHANNELS 3 Zrotation Xrotation Yrotation
				JOINT RightForeFoot
				{
					OFFSET 0.00000 -3.74820 0.00000
					CHANNELS 3 Zrotation Xrotation Yrotation
					JOINT RightToeBase
					{
						OFFSET 0.00000 0.06325 14.43120
						CHANNELS 3 Zrotation Xrotation Yrotation
						End site
						{
							OFFSET 0.00000 0.00000 0.00000
						}
					}
				}
			}
		}
	}
	JOINT LeftUpLeg
	{
		OFFSET 9.98441 0.00000 0.00000
		CHANNELS 3 Zrotation Xrotation Yrotation
		JOINT LeftLeg
		{
			OFFSET 0.00000 -42.11800 0.00000
			CHANNELS 3 Zrotation Xrotation Yrotation
			JOINT LeftFoot
			{
				OFFSET 0.00000 -45.00070 0.00000
				CHANNELS 3 Zrotation Xrotation Yrotation
				JOINT LeftForeFoot
				{
					OFFSET 0.00000 -3.74824 0.00000
					CHANNELS 3 Zrotation Xrotation Yrotation
					JOINT LeftToeBase
					{
						OFFSET 0.00000 0.06325 14.43110
						CHANNELS 3 Zrotation Xrotation Yrotation
						End site
						{
							OFFSET 0.00000 0.00000 0.00000
						}
					}
				}
			}
		}
	}
}
MOTION
Frames: 4
Frame Time: 0.050000
-0.025299458699197738 -0.03327435975955426 -0.029881102627222822 -0.010954071417469458 0.02270778878175632 -0.0006284653184518564 -2.2525827173760495 0.2334193161168815 -0.8659689851732564 -0.9963267938626985 3.721531692563524 0.37286235629774805 -1.196873004099211 -1.8497646216138715 -1.3683316855010497 0.04887769645482284 0.39651517945533155 -0.8764973646963401 -0.1454369572833294 12.820199175781825 0.8143229363322472 0.5112495594183697 0.5155793990396476 1.1050300400149862 0.34467043937558245 -13.857884825236807 0.06420176714564396 -3.646363048889106 1.3410505367921992 -15.685667084796156 73.44728563082181 15.935048143474743 -0.7153807856714488 -3.688116159356589 7.395801916081103 42.51647086592268 22.723010723433152 -0.04000028279681425 -4.992505819660734 4.487371496149632 -0.14063549784044474 -1.599008941133904 -0.009050457414821968 0.0406003873039108 -56.2446746022356 -0.04485695143349053 -0.04092744865733492 -56.28106911870474 -38.80589411896359 0.04432820788452295 0.03098866737141085 0.03308989378304779 0.014809676466285882 -0.0487779073491745 0.016564311918905558 -0.014527066694926651 -0.017645439774032507 -36.671023613202074 0.022871859237621625 0.024369158227591354 -0.009562035893788323 -0.02890648113869939 0.0077690875303431306 -0.029656145143136244 -0.020433638664568248 -0.012831329741151472 -19.75591443760449 0.004947648160046971 0.02441714082088745 -0.009517560637572415 -0.013211437829587684 0.015680159479064044 -0.0050601106679118955 0.0020773741354766463 -0.023594900886716924 24.10191089092809 -0.019486205528790598 0.011696043797603608 28.90367334462044 -0.024660044154594895 0.036859568132476574 28.86493056957509 -0.013946711754206975 0.03952882021605704 5.501837119274498 1.370451636157533 13.77532001873767 -71.20324851655313 29.491677011626532 -6.996199141579375 -7.025273833882271 -7.713987275354693 -89.19946746769777 -9.862397170336262 -5.892726654254195 3.7671763589275686 -0.5045963802002398 0.07892877697075704 -8.108186342991013 0.048967042737878004 -0.014311446606413999 44.527953346707804 -0.008776291493154838 -0.026211465122014374 44.58290110975809 12.423265818095368 0.012317282432541639 0.020587362274070136 -0.016611804449551244 -0.04222769921865705 0.01252904281043192 0.02388546826566685 0.024442698382311254 -0.020441201384016287 11.106582952519405 -0.010096481865686496 -0.0064114463875993635 0.014354129764407118 0.03230481401563185 0.014400945088952564 0.03793219145129032 0.01925155302030788 0.024066692071076 4.794109546684345 0.04360300723535088 0.008792406729937077 -0.01797972546964188 -0.039723101259580056 0.01845698851169437 -0.008528039677720164 -0.014208478362299132 0.015547411651982342 -5.569392338073359 0.012337983562372257 0.034549378171128985 -6.682448786361135 0.0003500520794382562 0.01445241606205424 -6.702014448641496 -0.04308743980767181 0.030179315258491494 0.03698784045694769 -0.0019240204647459848 -0.016111045033029698 8.022609852443388 3.49896670463496 -19.180348679384277 0.03611220156979294 10.424367650344173 -0.03561941056435515 -5.573930131864474 -15.693645805496333 3.181008893763665 0.01460684853924213 -0.04166103119193643 0.014601767496853064 -0.008968684270789649 4.686810472149489 -0.03376802969379826 12.427651735697198 -8.263617347439983 6.850628311625571 -0.030568590153303578 46.39618594563067 0.013648536577011204 -4.349890954811868 -14.7941618784585 -3.809690577654594 -0.0009973272334342673 -0.001933281430695339 0.000408843417926795 0.029823684649756613 -10.699922072096603 -0.005571892062413166 
-0.01673317206906651 -0.007103368418768011 0.03554806850009864 -0.009410839457724033 0.02869686029328083 -0.024787223673215775 -2.324362495066563 0.22376734901617074 -0.8669568309826658 -0.9720522251973915 3.670502836992957 0.34564444027742397 -1.1762902406539035 -1.9287010303796668 -1.3952448844518806 -0.0008362395513275833 0.3534754539176678 -0.8734661208450665 -0.16534948491930457 13.026701218387094 1.031218960743703 0.5579104301132446 0.6414931068989628 1.9185621170393925 0.3293898533278478 -13.697493727035322 0.14537311290687943 -3.806658843192337 1.4010625552726816 -15.7528933736872 73.29676829021113 15.268644807825131 -0.8959445113102416 -3.29226808267411 7.422932278037535 42.405647308144836 22.835780130404483 -0.038675534369786664 -4.837665479077392 4.549725656463005 -0.12094425733152665 -1.5855860943326836 -0.028055307719501592 -0.006291682328951895 -56.26643225997651 -0.033983429621410585 -0.007826306898526578 -56.186395207384756 -38.726391695194536 -0.030061315122200456 0.008152071315481544 -0.0025215962278322115 0.023915592890251604 -0.011617090368864194 -0.026869988422148487 -0.007113765642623012 -0.002938664519603359 -36.70604995245583 -0.034353037953208675 0.042069981840760044 0.04641704053670631 -0.03173497270837741 -0.02637086354814082 0.0034972209710347046 0.029663402324210282 0.019526745841454772 -19.789688260237032 -0.02250587047048981 0.02946581562528251 0.026683145455237665 -0.001466426299703634 0.010549892558893846 -0.00042398616235885645 0.032826562558251365 -0.009654704040849565 24.037206661959566 0.023567715092778562 -0.04684939036236476 28.848176608900786 0.017065074835965695 -0.022614044075040887 28.87052317533292 0.03272948218423714 -0.043965049037818255 5.666680741009849 1.4102740483055212 13.79750678439323 -70.98822143146148 29.847463516641064 -7.246507552640922 -7.168354272517422 -7.924867901329505 -89.56521054470657 -8.900195078111457 -5.176258390873673 2.8516264620275003 -0.50108312845191 0.06967291629842812 -8.086909976796642 -0.0165848020329032 -0.01735033381525801 44.53608179932988 -0.022550864045752596 0.012280471802428894 44.53193066801673 12.415732443144721 -0.04296614816037045 0.04569774617466758 -0.011446429372249526 -0.011926662086232862 0.012302749380169509 -0.00046789207706402836 0.03647447778415569 0.019216689967109454 11.068672442608293 -0.003996853329850052 0.0087571894991755 -0.024527761157198544 -0.02115718674925567 0.009462267693180454 -0.04383544766648783 -0.019875918268318738 0.030288941991200975 4.788676778898258 -0.003570915630314607 -0.0436869691878729 0.02652305588640842 -0.030449324350072183 0.016633293700315997 0.010241327510038338 -0.025345816837154454 -0.018926168295017906 -5.6231097035492486 -0.028027040688521635 0.016738164293549924 -6.744676655316763 0.037403550852447086 -0.00464304685927114 -6.725651957386844 -0.025405717694037145 -0.006573389874942441 0.04961636493400951 -0.0022077914743986043 0.01617451047493007 8.085953639436699 3.517263982047184 -19.24513096284822 0.00412446576964414 10.377709096800524 0.0009305632926976948 -5.580873161540931 -15.69238937321563 3.24127268537164 0.01835370203205695 -0.01794095292005091 0.020213740872692076 -0.01955135965415369 4.660721617296505 0.045363304358880904 12.48217911471013 -8.23040697746273 6.9285609821776415 0.017403782009203537 46.36656976126642 -0.033370660437827285 -4.28588583689598 -14.773960978312568 -3.826807290476585 -0.01404435603561712 0.019077253597207775 0.026713852312316794 0.009818908408313128 -10.729552298185347 0.033889238844344215 
0.019546079688659884 0.0013062326113355506 0.04851080174337103 0.017464208140804256 -2.1908184649571947e-05 -0.01832964936328834 -2.4525439604722274 0.15291611482821274 -0.7994763189568553 -0.9937884455592746 3.7471114314271574 0.42016110074206603 -1.1481871830485173 -2.0133730372090106 -1.4331045938478186 -0.008940723368023196 0.40418966484122976 -0.8383425649594772 -0.26408902467410506 13.215263888215196 1.3923416698518167 0.5760885742776263 0.7552358668631352 2.7319435479075955 0.28464160661232296 -13.578148428516538 0.18654466960996685 -3.8352753359255796 1.4231629563800787 -15.751918551810977 73.28686956648866 15.237415191706418 -1.1301639140215127 -2.431769355002403 7.630554218925574 42.9131522365694 22.8251061395925 -0.04844674422419652 -4.629184907547852 4.494622589798589 -0.09638262237669333 -1.595099045504127 -0.004269686099775763 0.022959589308096634 -56.196591832036404 -0.0002759933997970012 0.010674099349900585 -56.25925383809622 -38.76731920726676 0.02243627258425421 -0.00945588101236251 -0.03299335415170408 0.03723461938782202 0.032892784006855386 -0.009698055109949259 0.003097396018512971 -0.013960651147086615 -36.70279435951296 -0.033601120408684494 0.04741031414612758 0.048746242019412356 -0.012918241211539712 0.04522900012477981 -0.0013056840325110725 0.00405106420805682 0.02505310261172399 -19.738678833872473 0.04590856158915668 -0.03374479244415765 -0.00440298700785615 0.04374510595485188 0.021448629766987366 -0.01738992228596472 -0.04017926154549456 -0.04933420346399108 24.05249305763968 -0.0077727646604223155 -0.04467366784226487 28.899694329444625 -0.028412862187836133 -0.008955048038131035 28.825517905476808 -0.0427500099642865 -0.0379263486750014 5.8362038308279605 1.3632908476114614 13.880491367862334 -70.83988226967212 30.459554412422833 -7.442769842520073 -6.018000620837487 -8.679834936618242 -90.47116679463129 -7.697796350662327 -4.388771345079673 1.6625319724070793 -0.4285585043519984 0.03730489127164943 -8.09050130976281 -0.02828468497366646 0.01626187686672284 44.5323203514574 0.011064728192175686 0.049258585485096866 44.608144226959986 12.433174906464444 -0.012736363438586229 0.004459403057076178 -0.03341482042669444 0.017583081448689506 0.04516641292824572 -0.02605964656859099 -0.04816006202549571 0.04639595048151946 11.10095545706126 -0.03667494924680303 -0.01140964958151181 -0.04051713658939217 0.04639608403538182 -0.04450223310800081 0.02494395227997731 -0.04986474765436767 0.013689025159621246 4.804646166356031 -0.015395911739366249 0.02550726416983763 0.023880045920686734 0.031134051991934943 0.010144222853855243 -0.02377186818194059 0.014939589307277389 -0.03189226060357165 -5.567127964913822 -0.007613869678437876 -0.006991201931185935 -6.738011744200651 0.016627031046725152 -0.02794676373673109 -6.699790609013513 -0.025195733829375483 -0.025769789230890898 -0.019222905673325942 -0.008410067856523104 0.035097447239192385 8.031915231064707 3.4719532262262773 -19.213082906617345 0.04995425262519821 10.392131629426103 0.03592093902128268 -5.629352402969113 -15.683578462762833 3.1910120448521466 0.021855263537574898 0.03400758232019728 0.04255882169011146 0.002219064075358773 4.71784124966807 -0.0043841321160666 12.492116007417795 -8.263367884625254 6.853656093945028 -0.043722785888866564 46.37183672923063 0.006745507314145485 -4.298417715458374 -14.746748652717827 -3.843725352014032 -0.006800468493933069 -0.01993331557071883 0.015411786711338978 0.02503418576542227 -10.775028753952197 -0.0016833158371583876 
0.00610310726246292 0.03613667278588167 0.020204212140886902 -0.03933212501091159 0.04265215028932187 -0.02193500120384044 -2.6289686639466163 0.1402749446543602 -0.7961937902171666 -1.0516055371955348 3.7376337458663715 0.3634603225627765 -1.2258061038430141 -2.082145132600771 -1.4304358257037204 -0.06449387188675049 0.38105512912110595 -0.8997081917622473 -0.30428362917064017 13.437046633304877 1.7416464755347143 0.6019470613801466 0.7943521580306454 3.4801954480588844 0.2428015317838097 -13.49939028991929 0.296124338475249 -3.939895760545022 1.4974684665642253 -15.74175340443732 73.19755712195416 15.052360184656324 -1.315579431963031 -1.6116022721895351 7.604463059597653 43.31094737112662 22.760180517562286 -0.1228364379646899 -4.446535234007449 4.5201714562514494 -0.1306758504572979 -1.581416612399428 0.03473900789273773 -0.043666615244087804 -56.20087659274671 -0.03230165827773672 -0.020320472624448485 -56.244536509045 -38.78497940052445 0.02647264815551927 -0.03790802824437752 0.034212359127816665 -0.009959669741073063 -0.008515044485322035 -0.023131198641622483 0.04641179423156639 0.04008850683164948 -36.66524136611356 0.010107364664224837 0.025250132061914097 0.003445588202127166 -0.011041256723404246 0.011157871688525382 0.01600864689302906 0.020311055595313213 0.04483746497842604 -19.756816504855454 -0.013524802175143328 -0.021376612163776145 -0.015433644533459245 -0.006325754063611931 -0.012111749137124352 0.013374710753473535 -0.046940052300646046 0.04700486475724363 24.098278020974725 0.01608177147309647 -0.03941894429174123 28.89994908708716 0.012067921068135557 -0.042752742036830146 28.848004538984476 -0.02861701068569742 0.048782168216398046 6.061123401114307 1.462699890948213 14.000110322798074 -70.47665860808448 31.017387916713368 -7.811420784035315 -3.3125935517382183 -9.991556889836136 -91.61024687918552 -6.3376618207079165 -3.6440351931509705 0.37969303139535865 -0.48447945536981646 0.05020194661351894 -8.09033680231542 0.04275993190386771 -0.007352088002342936 44.61104152295376 -0.022411863291491585 -0.00045656724401579017 44.59167825892299 12.4563800756252 -0.023367338510424353 -0.03229488661001098 0.002346933245406977 -0.018193171684425472 0.020382050176010375 0.018337989178543818 -0.018621070189774297 -0.015203722801530744 11.086443895651193 0.01866892069921938 -0.02405848896510142 -0.018640108191161433 0.04601475692650533 -0.04243807231932569 0.026343401520762623 0.02007197723581824 0.03123753053669604 4.759711405213329 0.02704826728546064 0.0346706395613612 0.005943613189828899 -0.028861394313961165 0.03956485550883696 -0.021183927787675288 0.005719651298408979 -0.013125751668400779 -5.64033053529608 0.04077261691068397 -0.0035680808169255298 -6.739592646851937 -0.018980030430026947 0.0038657376826166457 -6.733532777896598 -0.024334343645087197 -0.024158182043023963 0.019103116351982072 0.04087870362018792 -0.01548645793846426 8.052742942617694 3.481340002925691 -19.214597852759475 -0.01413855056084756 10.418319779820347 -0.033054587696861995 -5.616918726855886 -15.651935086680025 3.195594683911961 -0.0011659649540187978 -0.04983764748680689 0.021536862661891785 0.02622251165331971 4.724626888204746 0.04582767985457496 12.49605093532254 -8.274997305973171 6.8563284154648665 0.03817321159370011 46.40725160122969 0.04882445556679213 -4.280676933844218 -14.75474592862682 -3.8808587024266594 0.0410769626413937 -0.00010959738959705606 0.00918085673519336 0.00953373578867979 -10.72484836359945 -0.02245358498652728 
